<svg xmlns="http://www.w3.org/2000/svg" width="83" height="20" viewBox="0 0 83 20"><style>.a{fill:#EAEAEA;}</style><polygon points="7 16 6 16 6 0 0 0 0 20 13 20 13 13 7 13 " class="a"></polygon><path d="M14 20h13V0H14V20zM20 4h1v12h-1V4z" class="a"></path><polygon points="35 8 35 4 36 4 36 7 41 7 41 0 28 0 28 12 35 12 35 16 34 16 34 13 28 13 28 20 41 20 41 8 " class="a"></polygon><path d="M42 20h6v-5h7V0H42V20zM48 4h1v7h-1V4z" class="a"></path><polygon points="56 20 69 20 69 13 63 13 63 16 62 16 62 12 69 12 69 8 62 8 62 4 63 4 63 7 69 7 69 0 56 0 " class="a"></polygon><polygon points="83 8 83 0 70 0 70 20 83 20 83 13 77 13 77 16 76 16 76 4 77 4 77 8 " class="a"></polygon></svg>