<?xml version="1.0" encoding="utf-8"?>
<!-- Svg Vector Icons : http://www.onlinewebfonts.com/icon -->
<!DOCTYPE svg PUBLIC "-//W3C//DTD SVG 1.1//EN" "http://www.w3.org/Graphics/SVG/1.1/DTD/svg11.dtd">
<svg version="1.1" xmlns="http://www.w3.org/2000/svg" xmlns:xlink="http://www.w3.org/1999/xlink" x="0px" y="0px" viewBox="0 0 1000 1000" enable-background="new 0 0 1000 1000" xml:space="preserve">
<metadata> Svg Vector Icons : http://www.onlinewebfonts.com/icon </metadata>
<g><g transform="translate(0.000000,512.000000) scale(0.100000,-0.100000)"><path d="M3036.5,4997.4c-78.5-34.5-158.9-132.1-172.3-208.7c-5.7-34.5-9.6-294.8-5.7-582c5.7-490.1,7.7-522.6,45.9-572.4c74.7-101.5,135.9-132.1,256.5-132.1s181.9,30.6,256.5,132.1c38.3,49.8,40.2,76.6,40.2,624.1c0,547.5-1.9,574.3-40.2,624.1c-21.1,28.7-61.3,70.8-88.1,90C3266.2,5020.4,3113.1,5033.8,3036.5,4997.4z"/><path d="M1074.2,4178c-118.7-61.3-181.9-185.7-162.7-317.8c11.5-86.1,28.7-105.3,407.8-486.3c426.9-426.9,446.1-438.4,610.7-407.8c93.8,17.2,208.7,132.1,225.9,225.9c30.6,160.8,15.3,187.6-369.5,574.3c-197.2,199.1-381,377.1-409.7,398.2C1294.4,4224,1175.7,4229.7,1074.2,4178z"/><path d="M5008.3,4199.1c-70.8-21.1-786.8-729.4-825.1-815.5c-105.3-241.2,128.3-492,379.1-409.7c45.9,15.3,183.8,139.8,449.9,409.7c367.6,369.5,384.8,390.6,398.2,476.7c19.2,132.1-44,258.4-162.7,317.8C5157.7,4222.1,5102.2,4227.8,5008.3,4199.1z"/><path d="M3017.4,2470.4c-30.6-13.4-128.3-97.6-214.4-187.6c-166.5-172.3-195.3-233.5-168.5-373.3c11.5-65.1,359.9-421.2,3289-3352.1C7858.9-3382,9225.8-4735.5,9262.2-4750.8c143.6-61.3,241.2-24.9,432.7,162.7c189.5,183.8,237.4,294.8,185.7,436.5c-28.7,72.7-6537.7,6587.5-6618.2,6622C3185.8,2502.9,3092,2502.9,3017.4,2470.4z"/><path d="M279.7,2240.6c-128.3-55.5-201-202.9-174.2-346.5c17.2-90,112.9-195.3,199.1-222.1c46-11.5,260.4-17.2,601.1-13.4c499.7,5.7,532.2,7.7,582,45.9c101.5,74.7,132.1,135.9,132.1,256.5s-30.6,181.9-132.1,256.5c-49.8,38.3-80.4,40.2-601.1,44C459.7,2265.5,323.8,2261.7,279.7,2240.6z"/><path d="M4874.3,2240.6c-128.3-55.5-201-202.9-174.2-346.5c17.2-90,112.9-195.3,199.1-222.1c46-11.5,260.4-17.2,601.1-13.4c499.7,5.7,532.2,7.7,582,45.9c101.5,74.7,132.1,135.9,132.1,256.5s-30.6,181.9-132.1,256.5c-49.8,38.3-80.4,40.2-601.1,44C5054.3,2265.5,4918.4,2261.7,4874.3,2240.6z"/><path d="M1734.7,938.8c-30.6-15.3-225.9-197.2-434.6-405.9C940.2,169.2,923,148.2,911.5,62c-30.6-204.8,145.5-381,350.3-350.3c86.2,13.4,107.2,30.6,476.7,398.2c411.6,407.8,440.3,448,421.2,593.5C2132.9,902.5,1918.5,1021.2,1734.7,938.8z"/><path d="M3036.5,402.8c-78.5-34.5-158.9-132.1-172.3-208.7c-5.7-34.5-9.6-294.8-5.7-582c5.7-490.1,7.7-522.6,45.9-572.4c74.7-101.5,135.9-132.1,256.5-132.1s181.9,30.6,256.5,132.1c38.3,49.8,40.2,76.6,40.2,624.1c0,547.5-1.9,574.3-40.2,624.1c-21.1,28.7-61.3,70.8-88.1,90C3266.2,425.8,3113.1,439.2,3036.5,402.8z"/></g></g>
</svg>